<svg xmlns="http://www.w3.org/2000/svg" width="512" height="512" viewBox="0 0 512 512"><path d="M306.704 510.354c-.63-.88-1.548-1.598-2.04-1.598-1.23 0-5.047-5.248-5.047-6.938 0-.754-.244-1.372-.542-1.372s-.694-.525-.88-1.166c-.185-.642-.805-1.72-1.379-2.397-1.537-1.818-3.132-7.102-3.441-11.4-.237-3.308-.526-4.042-2.318-5.899-1.126-1.166-2.935-2.304-4.02-2.527-2.535-.523-6.734.17-8.143 1.34-.604.503-1.438.923-1.855.934s-1.722.739-2.9 1.618c-1.176.879-2.895 1.598-3.818 1.598-2.031 0-6.645 1.596-10.47 3.622-1.55.82-3.196 1.492-3.657 1.492-.462 0-1.437.43-2.167.955s-2.618 1.134-4.198 1.354-3.737.94-4.796 1.602c-1.564.978-3.128 1.203-8.349 1.203-4.32 0-7.025.298-8.258.912-1.009.502-3.012 1.084-4.452 1.294s-3.623.55-4.851.758c-1.323.224-2.497.087-2.88-.335-.357-.391-1.853-.712-3.325-.712s-2.98-.334-3.353-.742c-.413-.454-3.634-.86-8.275-1.044-4.18-.166-7.741-.551-7.912-.856s-1.198-.554-2.28-.554-2.13-.287-2.327-.639c-.198-.351-1.72-.643-3.38-.648-4.11-.012-5.364-.47-6.247-2.282-.414-.85-.97-1.545-1.236-1.545-.922 0-2.81-2.563-2.81-3.813 0-.691-.452-2.296-1.004-3.567-.948-2.185-.948-2.412 0-4.228.552-1.055 1.003-2.95 1.003-4.21 0-3.486 1.617-6.89 3.823-8.045 1.816-.952 2.055-.924 4.718.56 1.542.86 3.07 1.566 3.393 1.567s1.255.682 2.07 1.512c2.75 2.801 3.831 3.143 12.762 4.036 1.76.176 3.449.582 3.753.903.303.321 1.035.583 1.625.583s1.78.72 2.642 1.598c1.56 1.589 1.635 1.598 12.66 1.598 6.99 0 11.317-.25 11.703-.673.337-.37 2.659-.73 5.16-.799q4.548-.126 4.788-.925c.138-.455 1.208-.799 2.487-.799 1.234 0 2.406-.288 2.604-.64.198-.35 2.26-.638 4.583-.638 3.546 0 4.77-.308 7.636-1.918 1.938-1.089 4.326-1.918 5.524-1.918 1.16 0 2.618-.422 3.239-.938.62-.517 2.246-.948 3.61-.96 1.365-.01 2.936-.29 3.492-.62.867-.516 3.654-1.419 4.89-1.584.213-.03.583-.269.824-.532.24-.264.885-.48 1.434-.48.55 0 1.922-1.122 3.05-2.492 2.039-2.48 2.051-2.531 2.472-10.266.281-5.19.686-8.065 1.218-8.649.567-.623.796-2.713.796-7.275 0-3.577.256-6.574.582-6.795.32-.217.581-2.087.581-4.155s.262-3.938.582-4.155c.32-.216.582-1.505.582-2.861s.524-3.809 1.164-5.45c.64-1.64 1.164-3.537 1.164-4.216 0-1.238.14-1.643 1.938-5.583 1.178-2.584 1.223-3.96.178-5.53-.719-1.08-1.588-1.176-9.455-1.045-4.764.08-8.911.417-9.216.749-.303.332-2.052.604-3.885.604-2.188 0-3.634.33-4.207.959-.51.56-1.93.958-3.416.958-1.4 0-2.793.264-3.097.586-1.208 1.28-26.149 2.554-27.208 1.39-.349-.384-1.37-.697-2.27-.697-1.486 0-2.515-.406-5.114-2.019-.48-.298-1.396-.8-2.036-1.117-1.321-.654-4.29-4.059-5.646-6.475-.5-.891-1.062-2.905-1.25-4.475a346.213 380.344 0 0 0-.712-5.583c-.207-1.516-.116-3.078.205-3.516.317-.432.75-1.68.963-2.774.212-1.093 1.29-3.528 2.395-5.412s2.008-3.669 2.008-3.969c0-.912 6.763-7.965 8.078-8.424.678-.237 1.232-.664 1.232-.95 0-.287 1.415-1.282 3.144-2.212s3.292-2.113 3.473-2.631c.181-.519.811-.943 1.4-.943s1.579-.422 2.2-.938c.622-.517 1.653-.951 2.293-.967.64-.015 2.304-.744 3.696-1.618 1.805-1.133 3.401-1.59 5.557-1.59 1.664 0 3.328-.334 3.699-.74.927-1.02 2.864-1.222 15.374-1.604 10.501-.32 10.905-.286 11.912 1.006.574.735 1.52 1.337 2.101 1.337.582 0 1.833.63 2.78 1.4 2.195 1.783 2.33 4.162.268 4.73-.8.221-1.455.659-1.455.972s-1.388.57-3.084.57-3.333.261-3.636.581c-.305.32-2.91.74-5.79.932s-6.94.66-9.02 1.04-4.96.85-6.4 1.048c-1.44.197-2.867.617-3.17.935-.305.318-2.34.577-4.522.577-3.23 0-4.397.297-6.273 1.598-1.267.88-2.78 1.598-3.362 1.598-1.346 0-5.366 4.483-5.366 5.982 0 .624-.289 1.726-.641 2.45-1.257 2.58 2.555 8.19 5.566 8.19.99 0 2.39.453 3.113 1.01.931.717 3.042 1.075 7.257 1.23 3.269.122 7.025.413 8.348.648 1.519.27 2.55.17 2.799-.273.216-.384 1.406-.699 2.644-.699s2.644-.431 3.125-.959c.564-.62 2.005-.959 4.08-.959 1.764 0 3.37-.287 3.567-.639.198-.351 2.423-.639 4.946-.639s4.748-.288 4.946-.64c.205-.364 3.18-.638 6.938-.638 5.928 0 6.745-.142 8.257-1.433 2.331-1.99 3.674-3.816 3.696-5.03.011-.565.802-2.723 1.758-4.794s1.742-4.281 1.745-4.912c.01-.63.662-1.922 1.462-2.87s1.455-2.25 1.455-2.891c0-.642.655-2.11 1.455-3.263s1.454-2.537 1.454-3.075c0-.54.393-1.339.873-1.777s.873-1.311.873-1.942.221-1.243.492-1.36c.512-.222 1.537-2.153 3.59-6.765.665-1.494 1.46-2.717 1.764-2.717s.555-.53.555-1.18c0-.648.523-1.7 1.163-2.336s1.164-1.499 1.164-1.918.524-1.28 1.164-1.917c.64-.636 1.164-1.494 1.164-1.905 0-.413.654-1.425 1.454-2.25.8-.826 1.455-1.832 1.455-2.237 0-.404 1.043-1.864 2.318-3.244 1.274-1.38 2.322-2.86 2.327-3.287.01-.427.796-1.66 1.756-2.739s1.745-2.24 1.745-2.582 1.83-2.705 4.069-5.252 4.07-4.879 4.073-5.182c.01-.673 2.567-4.28 4.988-7.026 5.876-6.663 7.302-8.837 7.123-10.863l-.178-2.015-14.256.121c-7.84.066-15.172.131-16.292.145s-7.798-.001-14.838-.032c-12.892-.056-21.238.447-21.238 1.28 0 .248-.815.52-1.81.603-.996.084-2.289.432-2.872.775s-1.933.624-3 .624c-1.11 0-2.856.684-4.081 1.598-1.177.879-2.646 1.598-3.264 1.598s-1.428.403-1.801.897c-.627.83-6.412 4.217-7.203 4.217-.192 0-1.055.719-1.917 1.598-.864.879-2.071 1.598-2.684 1.598s-2.473 1.398-4.134 3.108c-1.66 1.709-3.674 3.47-4.474 3.915-3.6 1.995-11.095 7.886-14.18 11.143-1.861 1.964-3.575 3.44-3.808 3.282-.234-.159-2.866 2.466-5.85 5.834-2.982 3.367-6.274 6.756-7.314 7.531-2.312 1.723-11.904 12.094-11.914 12.881-.01.313-1.444 2.216-3.2 4.23s-3.193 4.066-3.193 4.558-1.01 1.867-2.244 3.055-2.43 2.806-2.658 3.594-.657 1.431-.956 1.431-.543.401-.543.89c0 .49-.393 1.057-.873 1.26-.48.202-.872.784-.872 1.293 0 .51-.197 1.021-.437 1.139-.24.117-1.036 1.507-1.767 3.09-.733 1.581-1.559 3.307-1.836 3.835-.278.527-2.023 4.41-3.878 8.63-1.856 4.218-3.91 8.532-4.565 9.585-2.005 3.224-3.228 6.008-3.228 7.351 0 .705-.21 1.281-.467 1.281-1.167 0-3.311 9.253-4 17.26-.167 1.934-.533 3.825-.814 4.203-.282.378-.67 1.816-.865 3.197-.193 1.38-.592 2.782-.885 3.115-.739.841-.667 2.691.161 4.149.54.947.54 1.599 0 2.898-.381.921-.694 2.761-.694 4.088 0 3.096-1.635 8.387-2.734 8.85-.5.212-1.545-.48-2.55-1.687-1.678-2.019-1.698-2.139-1.698-9.638 0-4.372.246-7.761.582-7.989.32-.217.582-1.349.582-2.516s.358-2.449.797-2.85c.44-.4.953-1.944 1.143-3.433s.64-4.145 1-5.903c.362-1.758.746-3.89.853-4.736.108-.847.74-2.345 1.402-3.33.663-.986 1.205-2.09 1.205-2.455s.257-.665.57-.665c.315 0 .728-.791.92-1.758.686-3.466 2.107-8.81 2.631-9.9.294-.61.537-1.617.541-2.237.006-.62.658-2.38 1.455-3.91.796-1.53 1.452-3.256 1.457-3.835s1.183-3.197 2.618-5.818 2.609-5.291 2.609-5.934.393-1.333.873-1.535.872-.781.872-1.285c0-.505.555-1.553 1.234-2.33.678-.775 1.796-2.705 2.482-4.287s1.899-3.632 2.694-4.556c.796-.924 2.428-2.815 3.628-4.202s2.182-2.758 2.182-3.046.785-1.348 1.745-2.355c.96-1.008 1.746-2.066 1.746-2.351s1.44-2.192 3.2-4.237 3.2-3.95 3.2-4.234c0-.892 6.49-8.259 7.275-8.259.411 0 4.324-3.884 8.695-8.63 4.37-4.746 8.232-8.63 8.58-8.63s3.229-2.876 6.402-6.391c3.175-3.516 5.955-6.393 6.181-6.393s1.455-1.001 2.732-2.226c1.277-1.223 2.477-2.23 2.667-2.237.19-.006 1.034-.662 1.874-1.455s2.518-2.008 3.727-2.698 3.685-2.487 5.5-3.99c1.817-1.505 3.728-2.736 4.248-2.736 1.224 0 4.228-1.713 5.768-3.289.664-.68 1.867-1.413 2.673-1.629.807-.216 1.605-.622 1.774-.901.168-.28 1.225-.612 2.348-.738 1.123-.127 2.425-.494 2.894-.816 2.175-1.496 4.97-2.855 5.871-2.855.546 0 1.094-.332 1.216-.738.209-.686 3.124-1.41 9.014-2.238 1.347-.19 2.754-.748 3.126-1.24.496-.657 2.187-.898 6.309-.898 3.096 0 5.897-.292 6.223-.65.51-.561 14.786-1.329 22.915-1.233 1.44.017 3.6-.003 4.8-.045 7.225-.25 25.41-.048 30.044.333 5.352.442 5.531.41 9.155-1.59 2.034-1.123 4.3-2.827 5.035-3.788s2.18-2.156 3.21-2.657c1.028-.5 1.87-1.131 1.87-1.4 0-.27 1.178-1.122 2.619-1.89 1.44-.768 2.618-1.628 2.618-1.91 0-.28.72-.513 1.6-.515s2.35-.434 3.267-.959 1.95-.955 2.296-.955 1.297-.69 2.115-1.533c2.173-2.24 5.867-4.22 7.878-4.223.966 0 2.596-.565 3.622-1.253s2.504-1.344 3.282-1.458c.778-.115 1.77-.51 2.205-.879 1.54-1.302 8.59-4.717 9.74-4.717.641 0 1.328-.288 1.526-.64.197-.351 1.071-.639 1.941-.639s2.136-.426 2.814-.948c.678-.521 3.158-1.136 5.512-1.366s4.708-.658 5.231-.953c.524-.294 6.546-.556 13.383-.58 9.682-.036 13.063.172 15.288.942 1.571.543 3.557.988 4.415.988.888 0 2.955 1.1 4.809 2.557 1.787 1.406 3.532 2.557 3.876 2.557.345 0 .627.26.627.576 0 .317.72.866 1.6 1.219 4.238 1.7 11.202 12.765 11.201 17.8 0 2.826-2.187 8.466-4.364 11.262-1.086 1.393-2.14 3.362-2.343 4.375-.202 1.014-.548 1.843-.768 1.843s-1.256 1.438-2.304 3.196-2.17 3.196-2.497 3.196-1.56.855-2.743 1.898c-1.182 1.044-2.672 1.995-3.311 2.114-1.95.363-5.527 1.97-5.527 2.48 0 .265-.919.672-2.042.903-1.124.232-3.014.965-4.201 1.63-1.445.809-2.77 1.082-4.006.828-1.752-.361-4.491.889-5.547 2.53-.536.832-16.275.496-17.223-.368-.758-.691-1.57-.53-7.594 1.505-1.44.486-2.148.44-2.834-.185-.593-.542-2.204-.77-4.597-.652-2.025.1-4.182-.111-4.793-.47-.611-.36-4.213-.697-8.006-.75-4.156-.059-7.945-.464-9.538-1.02-1.454-.508-5.262-1.184-8.462-1.502-7.607-.759-14.293-1.88-15.557-2.606-.556-.32-3.093-.581-5.64-.581-2.545 0-4.79-.288-4.987-.64-.53-.94-4.699-.777-6.856.27-1.94.941-4.938 3.989-12.982 13.197-4.95 5.668-7.801 10.03-7.801 11.938 0 .627-.655 1.68-1.455 2.34s-1.455 1.766-1.455 2.457-.626 1.798-1.392 2.46-1.966 2.43-2.667 3.927c-.7 1.498-1.907 3.383-2.68 4.189-.774.805-1.407 2.107-1.407 2.894s-.785 2.374-1.746 3.528c-.96 1.155-1.745 2.329-1.745 2.608 0 .28-1.31 3.008-2.91 6.063s-2.909 5.973-2.909 6.484-.198.93-.44.93c-.48 0-3.051 5.837-3.051 6.928 0 .371-.655 2.027-1.455 3.68s-1.454 3.665-1.454 4.471-.23 1.622-.512 1.813c-1.213.823-2.185 9.92-1.263 11.813.576 1.183 1.18 1.339 5.17 1.339 2.485 0 4.767.26 5.07.577.305.318 1.798.749 3.317.959l5.528.763c1.52.21 3.013.641 3.317.959s1.485.577 2.626.577c1.505 0 2.358.417 3.115 1.525.574.839 1.867 1.707 2.875 1.928 2.023.444 7.778 6.536 9.015 9.541 1.626 3.953.47 18.103-1.54 18.839-.353.13-.638.571-.634.98.01.411-.631 2.185-1.414 3.943s-1.583 3.628-1.777 4.155c-.879 2.38-5.994 10.645-8.455 13.66-1.12 1.372-3.41 3.994-5.091 5.827-1.68 1.833-3.055 3.635-3.055 4.004 0 .793-10.807 12.945-11.513 12.945-.266 0-1.836 1.267-3.488 2.816s-4.32 3.47-5.929 4.27c-1.61.799-2.927 1.688-2.927 1.977s-.365.526-.81.526-.962.431-1.145.959c-.184.527-.876.959-1.536.959s-1.351.431-1.535.958c-.184.528-.65.96-1.035.96-1.164 0-4.49 3.969-4.147 4.95.174.498.316 2.753.316 5.01 0 3.22.188 4.102.873 4.102.48 0 .873.219.873.486s.623 1.224 1.383 2.124 1.564 2.265 1.785 3.03c.225.78.883 1.392 1.497 1.392.603 0 1.306.361 1.562.803 1.098 1.894 8.908 3.296 9.775 1.754.198-.352 1.082-.64 1.967-.64 1.472 0 5.25-2.008 9.67-5.14.96-.68 2.138-1.407 2.619-1.614.48-.208 1.549-.774 2.376-1.26.997-.584 2.073-.712 3.2-.377 1.369.408 1.658.805 1.499 2.052-.34 2.659-1.743 5.286-4.752 8.901-1.598 1.92-2.906 3.791-2.906 4.16 0 .368-.916 1.618-2.036 2.778s-2.037 2.375-2.037 2.698a.53.582 0 0 1-.523.588c-.288 0-1.442 1.008-2.564 2.24-1.122 1.234-2.837 2.417-3.81 2.631-.974.214-2.218.931-2.764 1.594s-1.323 1.205-1.726 1.205c-.404 0-.822.216-.929.48s-1.02.983-2.029 1.598c-1.369.834-3.173 1.118-7.094 1.118-2.892 0-5.42.288-5.618.64-.713 1.268-3.665.684-4.841-.96m9.29-63.273c.754-.872 1.555-1.591 1.78-1.598.361-.01 3.765-2.318 5.423-3.677 2.714-2.226 6.08-4.644 6.463-4.644.66 0 12.434-13.366 12.434-14.114 0-1.084 3.658-8.898 4.166-8.898.269 0 .489-.738.489-1.64s.296-2.25.66-2.994c.94-1.932.806-6.784-.267-9.588-.693-1.816-1.252-2.397-2.298-2.397-.762 0-1.999-.72-2.75-1.599-.752-.88-2.013-1.598-2.802-1.598s-1.76-.49-2.157-1.086c-.57-.857-2.127-1.188-7.338-1.563-3.638-.262-7.007-.537-7.487-.612-2.45-.384-3.054.415-6.333 8.375-.363.879-1.15 2.484-1.752 3.568-.6 1.084-1.216 3.24-1.366 4.794-.266 2.744-1.52 6.972-2.26 7.618-.47.41-.932 4.113-1.756 14.064-1.308 15.79-.675 19.177 3.581 19.177 1.586 0 2.582-.443 3.57-1.588M484.36 261.052c2.906-1.167 7.01-3.722 8.133-5.066 3.675-4.39 3.329-13.142-.676-17.125-1.505-1.495-7.615-4.502-8.261-4.064-.29.198-.679-.07-.862-.596-.246-.703-1.271-.955-3.885-.955-2.469 0-3.833-.31-4.475-1.016-.77-.845-2.147-.98-8.202-.8-5.158.154-7.348.45-7.52 1.017-.133.44-.498.8-.81.8s-.426-.253-.254-.559c.858-1.524-11.843-1.875-14.422-.397-.916.525-2.108.955-2.647.955-.54 0-1.234.278-1.543.617-.31.34-1.475.66-2.59.713s-2.55.321-3.19.598c-2.844 1.23-7.69 3.137-9.02 3.548-.8.247-1.585.626-1.745.842-.593.802-4.737 2.632-5.984 2.642-.71.006-1.906.725-2.66 1.598-.753.873-1.626 1.587-1.937 1.587-.53 0-2.721 1.878-8.015 6.872-1.21 1.143-2.482 2.077-2.824 2.077-1.363 0-1.296 1.428.14 3.005 1.407 1.546 1.946 1.68 7.47 1.858 11.179.36 22.826 1.35 24.467 2.08 2.102.934 13.61.977 13.89.05.132-.433.831-.306 1.94.35 1.5.887 3.817.993 17.153.78 13.106-.207 15.856-.42 18.33-1.412m-424.306 8.15c-.59-1.754-.982-1.853-7.89-1.997-5.56-.115-6.692-.319-7.726-1.386-.842-.869-2.033-1.25-3.899-1.25-2.176 0-2.758-.243-3.057-1.279-.266-.922-.886-1.282-2.22-1.29-1.208-.007-2.33-.563-3.223-1.597-.754-.874-1.997-1.588-2.764-1.588-1.455 0-3.177-1.524-4.28-3.786-.355-.73-.886-1.328-1.18-1.328-.64 0-6.407-6.245-6.407-6.939 0-.267-1.032-1.332-2.292-2.366s-2.42-2.406-2.575-3.047-.818-1.32-1.471-1.507c-.653-.188-1.338-.86-1.52-1.492-.183-.633-.654-1.286-1.047-1.451-.444-.188-.692-1.516-.656-3.521.05-2.784-.126-3.312-1.3-3.9-1.159-.58-1.359-1.148-1.359-3.864 0-2.418-.295-3.488-1.228-4.443-1.121-1.147-1.236-1.995-1.31-9.67-.075-7.898-.16-8.483-1.39-9.577-1.61-1.432-1.693-3.565-.173-4.459.848-.498 1.236-1.637 1.53-4.497.266-2.588.65-3.829 1.185-3.829.469 0 .938-1.012 1.152-2.486.26-1.78.758-2.685 1.753-3.184.765-.382 1.39-.986 1.39-1.34 0-1.041 1.928-3.288 3.346-3.9.72-.31 1.315-1.075 1.322-1.7.006-.623 1.054-1.944 2.328-2.933 1.274-.99 2.315-2.212 2.315-2.717s.36-.917.801-.917 1.128-.432 1.526-.96c.399-.526 1.36-.958 2.135-.958.777 0 2.018-.72 2.76-1.598 1.296-1.536 1.623-1.598 8.447-1.598h7.099l1.562 2.04c.86 1.122 1.537 2.488 1.506 3.036-.243 4.251.423 3.874-6.837 3.874-5.767 0-6.771.16-7.944 1.278-.88.838-2.177 1.279-3.766 1.279-1.759 0-2.765.394-3.664 1.438a90.19 99.081 0 0 1-1.838 2.078c-.328.351-1.192 1.385-1.92 2.299-.727.913-1.911 2.002-2.631 2.42-1.114.645-1.31 1.28-1.31 4.252 0 2.64-.284 3.805-1.163 4.771-1.65 1.813-1.65 7.63 0 9.27 1.055 1.048 1.163 1.968 1.163 9.865 0 7.917.106 8.807 1.164 9.802.873.821 1.164 1.886 1.164 4.254 0 2.598.207 3.232 1.164 3.565.64.224 1.163.825 1.163 1.336s.655 1.257 1.455 1.657c1.12.56 1.455 1.21 1.455 2.82 0 1.53.312 2.2 1.163 2.497.64.224 1.164.819 1.164 1.322s.384.916.853.916 1.143.597 1.499 1.327c.355.73 1.15 1.88 1.766 2.557.615.676 1.12 1.747 1.12 2.38 0 1.665 1.155 2.685 3.043 2.685 1.038 0 1.787.414 2.024 1.119.545 1.626 1.068 1.864 4.375 1.993 2.227.086 3.18.435 3.782 1.379.59.923 1.476 1.262 3.301 1.262 1.756 0 2.807.379 3.549 1.279.87 1.056 1.792 1.278 5.313 1.278 3.903 0 4.341.134 5.214 1.598l.953 1.598h21.262l.953-1.598c.644-1.08 1.486-1.598 2.595-1.598.903 0 2.098-.553 2.655-1.23.886-1.075 2-1.256 8.866-1.438 6.67-.177 7.966-.377 8.597-1.327.525-.79 1.544-1.119 3.47-1.119 2.163 0 3.008-.33 4.077-1.598.741-.879 1.972-1.607 2.736-1.618 3.23-.047 5.876-5.041 3.715-7.012-.48-.437-.873-1.186-.873-1.663s-.654-1.05-1.454-1.27-1.455-.658-1.455-.972-.524-1.144-1.164-1.847c-.816-.897-1.164-2.131-1.164-4.133 0-2.2-.266-3.011-1.163-3.538-.763-.448-1.164-1.339-1.164-2.58 0-1.042.197-1.834.436-1.759.24.074.963-.186 1.605-.58.933-.57 1.436-.476 2.499.47.731.65 1.283 1.404 1.226 1.674s.38.79.97 1.153c1.59.982 3.36 3.442 4.101 5.7.46 1.403 1.086 2.052 2.11 2.19.801.106 2.058.897 2.794 1.757 1.917 2.242 5.59 2.222 6.37-.035.304-.879.857-1.598 1.228-1.598 1.047 0 3.427-3.12 3.427-4.49 0-.676 1.17-2.514 2.599-4.084s2.775-3.663 2.99-4.651c.217-.988.88-2.312 1.475-2.94.595-.63 1.083-1.963 1.083-2.962 0-1.26.345-1.918 1.125-2.142.763-.219 1.255-1.118 1.528-2.791.221-1.358.815-2.986 1.32-3.62.997-1.253 1.024-5.294.045-6.591-.393-.52-.384-.909.026-1.187.336-.228.61-1.987.61-3.909 0-3.138.149-3.555 1.455-4.101 1.38-.577 1.455-.863 1.455-5.596 0-4.255.17-5.124 1.163-5.91 1.006-.796 1.164-1.655 1.164-6.3 0-4.917.125-5.507 1.455-6.86 1.434-1.46 1.454-1.625 1.449-11.58-.006-5.554-.17-11.177-.368-12.496-.319-2.12-.552-2.397-2.03-2.397-.918 0-1.67.246-1.67.546s-.654 1.322-1.454 2.27c-.8.95-1.455 2.419-1.455 3.267 0 .889-.493 1.833-1.164 2.227-.822.484-1.164 1.339-1.164 2.915 0 1.76-.29 2.353-1.38 2.808-.76.317-1.96 1.604-2.666 2.86-.708 1.258-1.758 2.284-2.338 2.284-.604 0-1.198.614-1.393 1.439-.186.79-1.253 2.115-2.37 2.944s-2.19 2.05-2.382 2.717c-.255.88-.898 1.21-2.365 1.21-1.193 0-2.144.367-2.329.896-.172.493-.838 1.047-1.48 1.231-.641.184-1.309.932-1.482 1.661-.222.934-.786 1.326-1.903 1.326-.873 0-2.062.575-2.641 1.279-.58.703-1.657 1.278-2.395 1.278s-1.865.618-2.505 1.372c-.986 1.162-1.746 1.354-4.978 1.257-3.38-.103-3.966.064-5.145 1.462-1.18 1.398-1.886 1.598-6.186 1.76-4.464.168-4.89.075-5.303-1.147-.492-1.463-2.06-2.379-2.99-1.747-.327.221-1.722-.929-3.102-2.555s-2.687-2.959-2.906-2.959-.913-.719-1.542-1.598c-.756-1.055-1.725-1.598-2.848-1.598-1.617 0-1.704-.138-1.704-2.725 0-2.212.246-2.843 1.31-3.356 1.157-.557 1.32-1.14 1.414-5.007.069-2.838.41-4.746.973-5.433.477-.582 1.06-1.92 1.294-2.976.5-2.248 2.555-5.347 3.579-5.398.392-.02 1.142-.754 1.666-1.633.615-1.031 1.498-1.6 2.487-1.605 1.054-.004 2.17-.8 3.57-2.55 1.266-1.582 2.546-2.547 3.384-2.55 1.582-.009 3.598-1.08 3.598-1.915 0-1.39 2.831-3.845 4.437-3.845 1.04 0 1.955-.477 2.392-1.247.39-.686 1.623-1.435 2.738-1.665 1.116-.23 2.332-.82 2.703-1.31.484-.64 2.128-.892 5.826-.892 4.854 0 5.208-.093 6.105-1.598l.953-1.598h10.678c10.478 0 10.69-.027 11.375-1.439.383-.79 1.034-1.726 1.447-2.077.543-.463.782-3.286.866-10.228.11-9.154.178-9.652 1.483-10.996 1.56-1.609 1.689-2.365.59-3.493-.647-.664-.646-1.068.006-2.423.492-1.026.752-3.587.706-6.945-.065-4.745.06-5.423 1.16-6.27.93-.715 1.234-1.621 1.234-3.69 0-1.826.389-3.236 1.164-4.217 1.026-1.3 1.454-3.077 1.018-4.214-.08-.207.574-.792 1.455-1.298.919-.53 1.6-1.457 1.6-2.18 0-.691.343-1.258.763-1.258.907 0 3.891-3.283 3.891-4.28 0-.382.655-.876 1.455-1.096s1.455-.777 1.455-1.236c0-1.368 2.583-3.615 4.154-3.615.807 0 2.074-.716 2.828-1.598 1.09-1.274 1.934-1.599 4.155-1.599 2.23 0 2.916-.266 3.437-1.334.56-1.149 1.089-1.304 3.803-1.119 1.734.119 3.154 0 3.153-.263 0-.264.409-.48.91-.48s1.811-.753 2.91-1.674c1.467-1.23 1.998-2.167 1.998-3.53 0-1.303.39-2.05 1.309-2.511.876-.44 1.35-1.288 1.433-2.565.068-1.05.526-2.351 1.018-2.891s.894-1.66.894-2.487c0-1.942 3.182-5.436 4.95-5.436 1.37 0 3.197-1.487 3.197-2.603 0-.326.744-.594 1.655-.594.91 0 2.088-.524 2.616-1.164.74-.9 1.924-1.191 5.181-1.277 3.737-.099 4.358-.295 5.407-1.712.652-.88 1.354-1.6 1.56-1.6.604 0 4.528 4.251 4.528 4.906 0 .929-2.997 4.683-3.737 4.683-1.066 0-2.717 2.42-1.899 2.786.38.17-.3.332-1.51.36-1.315.03-2.326.41-2.514.946-.171.492-.838 1.047-1.479 1.23-.642.185-1.309.933-1.482 1.662-.238 1-.782 1.326-2.213 1.326-2.215 0-3.454 1.323-2.932 3.13.268.926-.037 1.565-1.116 2.341-2.239 1.612-2.043 4.826.466 7.664 1.802 2.039 2.219 2.206 5.49 2.206 3.006 0 3.592-.188 3.9-1.256.23-.792 1.096-1.407 2.347-1.665 1.09-.224 2.286-.81 2.656-1.3.371-.491 1.026-.892 1.455-.892s1.043-.537 1.363-1.194 1.42-1.378 2.442-1.603 2.225-.982 2.672-1.683c.508-.797 1.474-1.274 2.58-1.274 1.277 0 1.851-.354 2.07-1.278.168-.703.518-1.278.778-1.278 1.272 0 2.302-2.221 2.32-5 .02-3.073 1.423-5.843 2.983-5.892.43-.013 1.498-1.163 2.374-2.557s1.99-2.532 2.473-2.532.88-.233.88-.518c0-.284 1.308-2.01 2.908-3.833s2.91-3.605 2.91-3.957 1.047-.642 2.327-.642c1.656 0 2.328-.27 2.328-.936 0-1.182 1.794-2.26 3.762-2.26.831 0 1.661-.431 1.846-.959.256-.732 1.348-.958 4.623-.958 3.932 0 4.367-.133 5.241-1.599.904-1.515 1.234-1.598 6.382-1.598 4.793 0 5.524-.151 6.254-1.295.776-1.219 1.349-1.286 9.488-1.119l8.662.177v8.31l-1.91.202c-1.108.117-2.205.72-2.612 1.438-1.05 1.845-7.87 1.802-9.322-.06-.809-1.038-1.24-1.16-2.165-.616-.636.373-1.156.957-1.156 1.296s-1.812.617-4.026.617c-4.779 0-5.866.368-5.866 1.986 0 1.052-.453 1.21-3.47 1.21-2.91 0-3.575.213-4.114 1.319-.384.788-1.152 1.274-1.911 1.207-3.769-.33-5.083.046-5.743 1.638-.469 1.13-.977 1.5-1.71 1.243-1.329-.463-3.418.74-3.418 1.966 0 .516-.214.937-.477.937-.262 0-1.309.817-2.327 1.815-1.3 1.276-1.85 2.385-1.85 3.733 0 1.425-.374 2.105-1.455 2.646-1.443.723-1.455.793-1.455 9.052 0 5.215.221 8.323.592 8.323.326 0 1.72 1.295 3.1 2.877l2.51 2.876h8.845c7.327 0 8.904-.165 9.182-.959.206-.59 1.09-.958 2.298-.958 2.106 0 2.355-.454 2.803-5.114.119-1.23.245-2.434.281-2.674s.588-.619 1.228-.842c.993-.346 1.164-.967 1.164-4.218 0-3.048.204-3.895 1.018-4.224.56-.226 1.228-.792 1.484-1.258.27-.491 1.493-.843 2.91-.837 2.853.013 5.062 2.05 5.062 4.668 0 .968.586 2.128 1.454 2.878 2.04 1.762 2.04 5.418 0 6.885-1.33.958-1.454 1.442-1.454 5.7 0 3.545-.207 4.74-.873 5.02-.536.226-.873 1.196-.873 2.517 0 1.639-.346 2.353-1.455 3.005-.8.47-1.454 1.157-1.454 1.527 0 1.085-3.678 4.223-4.951 4.225-.643 0-1.487.558-1.874 1.24-.45.79-1.499 1.31-2.904 1.438-1.621.147-2.35.577-2.774 1.638-.508 1.272-.997 1.438-4.23 1.438-3.337 0-3.715-.14-4.32-1.598-.62-1.491-.945-1.598-4.9-1.598-3.527 0-4.37-.207-5.025-1.234-.432-.677-1.56-1.436-2.506-1.684s-2.112-.818-2.592-1.266c-1.555-1.454-6.214-1.85-7.856-.669-1.303.938-1.454 1.477-1.454 5.187 0 3.288-.24 4.404-1.164 5.419-1.085 1.193-1.164 2.13-1.164 13.99v12.71l-1.454 1.048c-1.381.994-1.455 1.352-1.455 7.06 0 4.613.213 6.245.915 7.016.502.553 1.127 1.005 1.386 1.005.26 0 .61.575.777 1.278.283 1.187.794 1.279 7.108 1.279h6.803l1.688 1.985c1.491 1.753 1.688 2.453 1.688 5.986 0 3.945-.032 4.025-2.327 5.772-1.284.978-2.328 2.298-2.328 2.945 0 1.07-.677 1.19-7.71 1.351l-7.71.18-.191 2.237c-.105 1.23-.563 2.467-1.018 2.748-1.197.74-1.143 13.677.065 15.432 1.187 1.724 1.11 6.083-.125 7.075-1.294 1.04-1.227 8.422.086 9.508.635.524.906 2.322 1.024 6.786.148 5.6.262 6.122 1.47 6.704 1.194.575 1.308 1.062 1.308 5.55 0 4.358.134 4.966 1.164 5.325.64.224 1.164.7 1.164 1.06 0 .359.546 1.139 1.213 1.732.926.824 1.212 1.808 1.212 4.177 0 2.456.292 3.397 1.406 4.531 1.193 1.215 1.406 2.027 1.406 5.354 0 3.07.253 4.2 1.164 5.2.855.939 1.163 2.13 1.163 4.488 0 2.804.185 3.302 1.455 3.938 1.083.542 1.462 1.233 1.482 2.704.021 1.524.545 2.41 2.3 3.893 1.683 1.419 2.281 2.392 2.3 3.743.022 1.411 1.074 2.971 4.64 6.872 4.45 4.87 4.706 5.045 7.351 5.045 2.191 0 3.017.327 4.117 1.631.757.897 1.376 1.894 1.376 2.215s.565.916 1.257 1.323c1.216.715 1.22.76.145 1.404-.61.365-1.32 1.05-1.577 1.521-.31.572-1.696.855-4.179.855-3.202 0-3.765-.175-4.083-1.278-.287-.993-.88-1.279-2.658-1.279-1.91 0-2.288-.214-2.288-1.294 0-.793-.564-1.53-1.455-1.902-.8-.334-1.455-.902-1.455-1.262s-.392-.655-.872-.655c-.49 0-.873-.57-.873-1.299 0-.714-.458-1.485-1.019-1.712-1.887-.765-3.614-3.047-4.009-5.297-.364-2.072-3.143-5.756-4.343-5.756-.287 0-.521-1.408-.521-3.129 0-2.5-.29-3.43-1.444-4.634-1.084-1.129-1.447-2.172-1.455-4.17-.013-3.496-.475-4.687-1.818-4.687-.605 0-1.102-.328-1.102-.728 0-.401-.425-1.07-.944-1.487-.77-.618-.927-1.886-.851-6.83.09-5.921.057-6.087-1.383-6.808-1.302-.652-1.477-1.128-1.477-4.024 0-2.98-.215-3.522-2.327-5.843l-2.328-2.557v-12.71c0-11.856-.078-12.794-1.163-13.987-1.422-1.561-1.668-6.392-.326-6.392 1.19 0 1.657-1.097 1.243-2.913-.204-.892-.783-1.562-1.349-1.562-.804 0-.747-.187.302-.995 1.193-.918 1.293-1.501 1.293-7.545v-6.55l-1.918-2.044c-1.84-1.96-2.114-2.043-6.671-2.043-4.101 0-4.835.17-5.354 1.235-.332.68-1.126 1.418-1.766 1.642-1.004.35-1.165.966-1.165 4.472 0 3.918.841 6.075 2.37 6.075.297 0 .54 3.013.54 6.726 0 6.554-.038 6.744-1.455 7.454-1.358.68-1.455 1.037-1.455 5.397 0 3.931-.175 4.772-1.104 5.318-.769.453-1.166 1.51-1.31 3.486-.112 1.56-.117 2.74-.01 2.623.106-.118.696.337 1.309 1.01.963 1.06 1.115 2.18 1.115 8.22 0 3.973.251 7.165.582 7.39.32.216.582.952.582 1.635s-.262 1.24-.582 1.24c-.338 0-.582 2.095-.582 5.006 0 4.545-.121 5.078-1.316 5.78-1.17.689-1.304 1.208-1.198 4.695.101 3.335-.094 4.198-1.302 5.775-.781 1.02-1.42 2.552-1.42 3.404 0 .95-.338 1.55-.874 1.55-.48 0-.872.29-.872.646s-1.956 2.762-4.347 5.346-4.18 4.882-3.977 5.106c.204.224-.056.407-.578.407s-1.23.576-1.572 1.279-1.007 1.278-1.475 1.278-.853.294-.853.654-2.513 3.38-5.586 6.712c-5.165 5.601-5.76 6.058-7.893 6.058-2.686 0-4.559.928-4.559 2.26 0 .615-.6.936-1.751.936-1.031 0-2.16.526-2.748 1.279-.812 1.043-1.716 1.278-4.907 1.278-3.297 0-4.044.208-4.756 1.326-.809 1.268-1.34 1.323-12.397 1.274-10.854-.05-11.601-.13-12.351-1.326-.481-.767-1.456-1.274-2.452-1.274-1.06 0-1.88-.46-2.278-1.278-.342-.703-.964-1.279-1.381-1.279s-1.058-.719-1.422-1.598c-.581-1.4-1.03-1.598-3.627-1.598-1.857 0-3.288-.358-3.835-.959-.48-.527-1.346-.958-1.925-.958-.578 0-1.376.431-1.774.958-.44.58-1.713.96-3.23.96-2.373 0-4.335 1.177-4.335 2.602 0 .326-.633.594-1.407.594-2.009 0-3.248.636-3.248 1.666 0 .673-1.03.907-4.219.958-2.32.037-4.92.018-5.776-.043-1.049-.075-1.77.321-2.203 1.21-.59 1.21-1.175 1.324-6.879 1.331-7.266.01-8.64.31-9.036 1.968-.274 1.152-.982 1.22-12.872 1.22-11.453 0-12.617-.1-12.96-1.12zM167.53 257.22c.397-.526 1.766-1.3 3.041-1.72 1.276-.419 2.451-1.14 2.612-1.6.187-.534 1.333-.837 3.168-.837 2.319 0 3.135-.31 4.223-1.598.741-.88 1.841-1.604 2.445-1.61s1.713-.725 2.467-1.598c.753-.873 1.605-1.587 1.891-1.587s.52-.438.52-.972c0-.535.599-1.272 1.33-1.638.73-.366 1.843-1.535 2.473-2.598s1.733-2.189 2.453-2.501c1.009-.439 1.31-1.082 1.31-2.8 0-1.573.34-2.432 1.156-2.911.636-.374 1.328-1.463 1.537-2.42.21-.956.867-2.254 1.461-2.883s1.083-2.026 1.083-3.104c0-1.327.467-2.365 1.446-3.21 1.431-1.238 1.446-1.348 1.31-10.185-.1-6.433-.347-9.074-.883-9.438-.596-.404-.566-.88.147-2.374.708-1.481.885-4.159.85-12.95-.036-9.55.089-11.19.908-11.847.836-.672.943-2.664.903-16.723-.038-13.333-.187-16.077-.91-16.671-.475-.39-.935-1.674-1.022-2.851-.188-2.55-1.475-3.118-6.005-2.656-2.69.275-3.108.133-4.515-1.534-1.513-1.793-1.704-1.84-7.973-1.95l-6.424-.111-2.3 2.323-2.3 2.323v14.206c0 13.374-.063 14.228-1.1 14.59-1.474.514-1.715 1.83-1.715 9.377 0 4.947-.21 6.667-.92 7.528-.662.804-.921 2.443-.927 5.86-.01 5.85-.367 7.412-1.792 7.821-1.514.435-1.581 5.328-.091 6.6.97.829.97.912 0 1.74-.56.478-1.019 1.178-1.019 1.555s-.523.868-1.163 1.091c-.979.341-1.164.967-1.164 3.938 0 2.995-.177 3.584-1.164 3.868-.64.183-1.163.725-1.163 1.203s-.655 1.34-1.455 1.917c-.908.654-1.455 1.646-1.455 2.642 0 1.044-.904 2.575-2.618 4.43-1.44 1.56-2.619 3.393-2.619 4.073s-1.702 3.107-3.782 5.392c-2.984 3.28-3.782 4.563-3.782 6.085 0 1.736-.183 1.93-1.821 1.93-1.432 0-2.49.74-4.946 3.46-1.718 1.903-3.125 3.787-3.125 4.187 0 1.202 4.273 5.13 5.583 5.134.671.002 1.693.579 2.272 1.282.982 1.191 1.793 1.278 11.948 1.278 8.96 0 11.022-.17 11.616-.956m-52.47-85.82c.155-1.205.546-1.438 2.41-1.438 1.44 0 2.342-.338 2.56-.96.193-.553 1.063-.958 2.056-.958 1.143 0 2.106-.537 2.866-1.598.641-.896 1.746-1.598 2.515-1.599.754 0 2.156-.868 3.116-1.927a148 148 0 0 1 2.515-2.717c1.267-1.3 2.681-2.881 3.38-3.779.36-.465 1.408-1.602 2.327-2.529.92-.927 1.982-2.077 2.363-2.557.38-.48 1.493-1.712 2.473-2.737 1.29-1.352 1.78-2.451 1.78-3.996 0-1.226.295-2.13.696-2.13.382 0 1.43-.774 2.327-1.718 1.71-1.8 2.165-4.313.878-4.856-.415-.175-4.52-.223-9.121-.108-6.843.172-8.46.392-8.876 1.209-.405.795-1.629.998-6.02.998-5.314 0-5.534.058-6.173 1.598-.606 1.46-.983 1.598-4.353 1.598-3.3 0-3.688.134-3.688 1.279 0 .926-.388 1.278-1.407 1.278-2.009 0-3.248.636-3.248 1.667 0 .592-.686.89-2.049.89-1.621 0-2.188.334-2.711 1.598-.365.88-1.146 1.598-1.734 1.598s-1.07.25-1.07.555-1.179 1.85-2.619 3.432c-2.599 2.855-2.618 2.91-2.61 7.275.009 5.162.429 7.276 1.443 7.276.404 0 1.06.432 1.458.959.399.527 1.567.959 2.596.959 1.44 0 2.028.374 2.544 1.62.666 1.605.728 1.618 6.93 1.438 5.99-.174 6.267-.243 6.445-1.62m121.543-50.145 1.919-2.043v-10.06c0-9.498.065-10.082 1.163-10.464 1.115-.39 1.164-.968 1.164-13.634 0-12.535.061-13.268 1.164-14.025 1.076-.739 1.163-1.49 1.163-10.01 0-5.066-.158-9.666-.353-10.222-.238-.684-1.09-1.011-2.63-1.011-1.844 0-2.4.294-2.918 1.543-.352.85-1.13 1.686-1.73 1.857-.6.173-1.271.844-1.492 1.493-.22.649-.896 1.571-1.503 2.05-.933.737-1.072 1.537-.91 5.245.174 4.02.084 4.43-1.12 5.03-1.122.56-1.308 1.145-1.308 4.11 0 2.98-.2 3.599-1.455 4.502-1.381.995-1.455 1.35-1.455 7.073 0 4.812-.184 6.14-.913 6.588-.786.483-.906 2.351-.858 13.339l.055 12.778-1.47.864c-1.943 1.142-1.853 2.16.422 4.777 1.832 2.107 2.036 2.176 6.518 2.219 4.44.042 4.705-.039 6.546-2zm-31.369-4.37c.142-2.935.39-3.641 1.455-4.154 1.249-.603 1.289-.945 1.443-12.42.145-10.704.265-11.925 1.3-13.135 1.013-1.184 1.148-2.32 1.196-10.074.03-4.808-.112-9.035-.316-9.397-.203-.36-1.345-.828-2.538-1.038-1.585-.278-2.43-.882-3.14-2.239-.534-1.022-1.583-2.164-2.33-2.539-.749-.374-1.612-1.31-1.919-2.078-.404-1.011-1.158-1.45-2.74-1.594-1.34-.121-2.182-.527-2.182-1.05 0-1.033-1.275-1.628-3.489-1.628-1.635 0-5.82 3.67-5.82 5.102 0 .358-.335.651-.744.651-.8 0-1.848 1.201-3.489 3.995-.567.967-1.418 1.758-1.89 1.758-.576 0-.86.663-.86 2.004 0 1.339-.504 2.517-1.515 3.547-.952.97-1.41 1.987-1.23 2.739.176.744-.24 1.696-1.104 2.521-1.228 1.173-1.388 1.87-1.388 6.022 0 4.417-.089 4.74-1.487 5.44l-1.488.745.113 13.446c.11 12.972.157 13.471 1.343 14.147.675.386 1.7 1.242 2.278 1.904.982 1.125 2.004 1.192 15.71 1.032l14.661-.17z" style="fill:#a3a3a3;fill-opacity:1;stroke-width:.609879"/></svg>